<?xml version="1.0" encoding="utf-8"?>
<!-- Generator: Adobe Illustrator 23.0.3, SVG Export Plug-In . SVG Version: 6.00 Build 0)  -->
<svg version="1.1" id="Calque_1" xmlns="http://www.w3.org/2000/svg" xmlns:xlink="http://www.w3.org/1999/xlink" x="0px" y="0px"
	 viewBox="0 0 283.46 283.46" style="enable-background:new 0 0 283.46 283.46;" xml:space="preserve">
<style type="text/css">
	.st0{fill:#FFFFFF;}
	.st1{fill:none;stroke:#231E1F;stroke-width:1.002;stroke-miterlimit:10;}
	.st2{fill:#231E1F;}
	.st3{fill:none;stroke:#231E1F;stroke-width:0.212;stroke-miterlimit:10;}
	.st4{clip-path:url(#SVGID_2_);fill:url(#SVGID_3_);}
	.st5{clip-path:url(#SVGID_5_);fill:url(#SVGID_6_);}
	.st6{clip-path:url(#SVGID_8_);fill:url(#SVGID_9_);}
	.st7{clip-path:url(#SVGID_11_);fill:url(#SVGID_12_);}
	.st8{clip-path:url(#SVGID_14_);fill:url(#SVGID_15_);}
	.st9{clip-path:url(#SVGID_17_);fill:url(#SVGID_18_);}
	.st10{fill:none;stroke:#6D6E71;stroke-width:0.212;stroke-miterlimit:10;}
	.st11{fill:#900083;}
</style>
<path class="st0" d="M251.58,154.13c0,59.66-48.36,108.03-108.02,108.03c-59.66,0-108.02-48.37-108.02-108.03
	c0-59.66,48.36-108.03,108.02-108.03C203.22,46.1,251.58,94.47,251.58,154.13"/>
<ellipse transform="matrix(1.879635e-03 -1 1 1.879635e-03 -10.8479 297.4003)" class="st1" cx="143.56" cy="154.13" rx="108.03" ry="108.02"/>
<rect x="62.53" y="200.99" class="st2" width="161.36" height="7.71"/>
<path class="st2" d="M90.09,213.13l-0.89,3.82h-0.35c-0.04-1.04-0.3-1.82-0.77-2.33c-0.47-0.51-1.09-0.77-1.85-0.77
	c-0.81,0-1.63,0.35-2.44,1.05c-0.81,0.7-1.5,1.77-2.06,3.21c-0.45,1.16-0.68,2.31-0.68,3.45c0,1.02,0.25,1.8,0.75,2.33
	c0.5,0.53,1.18,0.81,2.05,0.81c0.71,0,1.35-0.15,1.93-0.46c0.58-0.31,1.16-0.81,1.76-1.5h0.43c-0.74,1.1-1.48,1.87-2.23,2.32
	c-0.75,0.44-1.66,0.66-2.75,0.66c-1.45,0-2.62-0.44-3.5-1.32c-0.89-0.87-1.33-2.02-1.33-3.44c0-1.33,0.36-2.59,1.06-3.8
	c0.7-1.2,1.72-2.18,3.04-2.92c1.32-0.74,2.64-1.11,3.94-1.11c0.5,0,1.12,0.11,1.86,0.31c0.38,0.11,0.64,0.16,0.79,0.16
	c0.29,0,0.59-0.16,0.89-0.48H90.09z"/>
<path class="st2" d="M93.94,217.21l-1.72,6.04c-0.08,0.28-0.12,0.47-0.12,0.58c0,0.05,0.02,0.1,0.06,0.12
	c0.05,0.05,0.1,0.07,0.17,0.07c0.27,0,0.64-0.24,1.09-0.73c0.65-0.71,1.34-1.72,2.05-3.03l0.81-2.72l2.25-0.08l-1.71,5.86
	c-0.14,0.5-0.21,0.78-0.21,0.85c0,0.05,0.02,0.1,0.06,0.15c0.05,0.05,0.09,0.07,0.14,0.07c0.08,0,0.17-0.04,0.24-0.1
	c0.21-0.17,0.49-0.52,0.84-1.04l0.3,0.21c-0.82,1.49-1.73,2.23-2.72,2.23c-0.37,0-0.66-0.09-0.87-0.28
	c-0.21-0.19-0.32-0.43-0.32-0.73c0-0.32,0.08-0.72,0.22-1.22l0.44-1.5c-0.77,1.12-1.33,1.87-1.68,2.26
	c-0.53,0.59-0.98,0.98-1.34,1.17c-0.36,0.2-0.71,0.29-1.04,0.29c-0.31,0-0.58-0.12-0.81-0.35c-0.23-0.23-0.35-0.52-0.35-0.88
	c0-0.3,0.07-0.71,0.22-1.22l1-3.55c0.16-0.58,0.25-0.97,0.25-1.17c0-0.09-0.02-0.17-0.07-0.24c-0.05-0.07-0.12-0.12-0.24-0.16
	c-0.11-0.04-0.31-0.06-0.61-0.06l0.09-0.33l3.02-0.53H93.94z"/>
<path class="st2" d="M104.05,217.21l-1.14,3.82c0.76-1.17,1.32-1.96,1.67-2.37c0.51-0.6,0.94-0.99,1.27-1.17
	c0.33-0.18,0.67-0.28,1.01-0.28c0.38,0,0.66,0.12,0.83,0.35c0.17,0.23,0.26,0.49,0.26,0.77c0,0.29-0.08,0.72-0.24,1.28l-0.4,1.43
	c0.77-1.19,1.32-1.97,1.66-2.36c0.52-0.6,0.97-1.01,1.36-1.23c0.27-0.15,0.55-0.23,0.85-0.23c0.31,0,0.58,0.11,0.79,0.31
	c0.21,0.21,0.31,0.49,0.31,0.82c0,0.38-0.09,0.87-0.27,1.47l-0.98,3.31c-0.15,0.49-0.23,0.81-0.23,0.95c0,0.05,0.02,0.09,0.06,0.13
	c0.04,0.04,0.08,0.06,0.13,0.06c0.06,0,0.12-0.02,0.17-0.06c0.21-0.17,0.44-0.42,0.67-0.75c0.05-0.07,0.14-0.18,0.24-0.33l0.31,0.2
	c-0.41,0.76-0.86,1.32-1.35,1.68c-0.49,0.35-0.94,0.53-1.36,0.53c-0.36,0-0.65-0.1-0.87-0.3c-0.22-0.2-0.33-0.43-0.33-0.7
	c0-0.25,0.07-0.64,0.22-1.15l1.01-3.46c0.14-0.48,0.2-0.77,0.2-0.89c0-0.04-0.02-0.08-0.06-0.12c-0.04-0.04-0.08-0.06-0.12-0.06
	c-0.08,0-0.15,0.02-0.23,0.06c-0.12,0.05-0.29,0.21-0.52,0.46c-0.24,0.25-0.57,0.69-1.01,1.34c-0.44,0.64-0.74,1.14-0.91,1.5
	c-0.17,0.36-0.33,0.83-0.5,1.4l-0.54,1.83h-2.24l1.66-5.8c0.09-0.31,0.14-0.53,0.14-0.64c0-0.05-0.02-0.08-0.06-0.12
	c-0.04-0.04-0.08-0.05-0.12-0.05c-0.22,0-0.57,0.29-1.04,0.86c-0.72,0.89-1.38,1.96-1.97,3.21l-0.72,2.55H99.4l1.67-5.71
	c0.16-0.56,0.25-0.96,0.25-1.2c0-0.09-0.02-0.18-0.07-0.24c-0.05-0.07-0.12-0.12-0.23-0.16c-0.11-0.04-0.31-0.06-0.61-0.06
	l0.09-0.33l3.03-0.53H104.05z"/>
<path class="st2" d="M126.62,217.33l-1.72,5.9l-0.18,0.72c-0.02,0.09-0.03,0.15-0.03,0.2c0,0.07,0.03,0.13,0.08,0.18
	c0.05,0.05,0.1,0.08,0.15,0.08c0.12,0,0.3-0.09,0.51-0.29c0.09-0.08,0.3-0.35,0.64-0.81l0.31,0.16c-0.42,0.77-0.87,1.33-1.34,1.68
	c-0.48,0.35-0.99,0.53-1.54,0.53c-0.34,0-0.59-0.08-0.78-0.26c-0.18-0.17-0.27-0.4-0.27-0.66c0-0.23,0.1-0.66,0.28-1.28l0.21-0.72
	c-0.69,1.18-1.34,2.01-1.98,2.51c-0.36,0.28-0.76,0.42-1.17,0.42c-0.54,0-0.94-0.22-1.18-0.67c-0.24-0.45-0.37-0.95-0.37-1.51
	c0-0.83,0.26-1.79,0.77-2.87c0.51-1.08,1.17-1.95,2-2.61c0.68-0.54,1.32-0.82,1.92-0.82c0.33,0,0.6,0.1,0.8,0.29
	c0.2,0.19,0.35,0.54,0.45,1.05l0.32-1.09L126.62,217.33z M123.78,219.02c0-0.48-0.08-0.82-0.22-1.04c-0.11-0.15-0.25-0.22-0.44-0.22
	c-0.18,0-0.38,0.09-0.57,0.27c-0.4,0.37-0.82,1.11-1.28,2.23c-0.46,1.12-0.69,2.09-0.69,2.91c0,0.31,0.05,0.54,0.16,0.68
	c0.1,0.14,0.21,0.21,0.34,0.21c0.27,0,0.54-0.16,0.81-0.46c0.39-0.44,0.74-0.97,1.06-1.61C123.5,220.87,123.78,219.88,123.78,219.02
	"/>
<path class="st2" d="M129.84,222.11c-0.05,0.38-0.08,0.7-0.08,0.95c0,0.44,0.13,0.8,0.39,1.06c0.25,0.27,0.6,0.4,1.03,0.4
	c0.42,0,0.83-0.1,1.25-0.3c0.42-0.2,0.9-0.55,1.45-1.06l0.26,0.24c-0.68,0.82-1.34,1.41-1.99,1.76c-0.64,0.35-1.36,0.52-2.14,0.52
	c-0.99,0-1.67-0.24-2.05-0.71c-0.38-0.48-0.57-1.02-0.57-1.64c0-0.97,0.28-1.94,0.84-2.91c0.57-0.97,1.34-1.75,2.31-2.33
	c0.97-0.58,1.95-0.88,2.93-0.88c0.5,0,0.87,0.12,1.13,0.36c0.25,0.24,0.38,0.54,0.38,0.9c0,0.43-0.12,0.85-0.37,1.26
	c-0.35,0.56-0.78,1.01-1.3,1.35c-0.52,0.34-1.1,0.6-1.75,0.78C131.15,221.96,130.57,222.05,129.84,222.11 M129.92,221.65
	c0.52-0.08,0.93-0.18,1.21-0.31c0.29-0.13,0.57-0.35,0.85-0.64c0.28-0.29,0.51-0.67,0.71-1.11c0.2-0.45,0.3-0.87,0.3-1.26
	c0-0.16-0.05-0.3-0.14-0.39c-0.09-0.09-0.21-0.14-0.35-0.14c-0.28,0-0.61,0.2-0.96,0.6C130.89,219.11,130.35,220.2,129.92,221.65"/>
<path class="st2" d="M144.98,213.13l-2.88,9.93c-0.18,0.62-0.28,1-0.28,1.13c0,0.06,0.03,0.12,0.08,0.17
	c0.05,0.05,0.1,0.07,0.15,0.07c0.1,0,0.22-0.05,0.35-0.15c0.22-0.16,0.49-0.48,0.8-0.94l0.32,0.17c-0.84,1.46-1.75,2.18-2.75,2.18
	c-0.36,0-0.63-0.09-0.83-0.28c-0.19-0.18-0.29-0.42-0.29-0.71c0-0.28,0.08-0.68,0.23-1.19l0.26-0.9c-0.74,1.31-1.38,2.17-1.92,2.61
	c-0.41,0.32-0.82,0.48-1.21,0.48c-0.44,0-0.82-0.18-1.12-0.54c-0.31-0.36-0.46-0.89-0.46-1.58c0-0.88,0.2-1.75,0.58-2.61
	c0.39-0.86,0.84-1.58,1.35-2.15c0.51-0.58,1-0.99,1.47-1.23c0.47-0.25,0.92-0.37,1.37-0.37c0.23,0,0.44,0.05,0.61,0.14
	c0.18,0.1,0.39,0.28,0.62,0.53l0.66-2.21c0.16-0.54,0.24-0.93,0.24-1.17c0-0.14-0.05-0.26-0.16-0.36c-0.11-0.1-0.25-0.15-0.42-0.15
	c-0.08,0-0.19,0.01-0.31,0.03l0.08-0.35l2.92-0.54H144.98z M141.08,218.75c0-0.36-0.07-0.62-0.21-0.79
	c-0.14-0.16-0.31-0.25-0.5-0.25c-0.19,0-0.39,0.1-0.61,0.29c-0.42,0.38-0.86,1.14-1.32,2.29c-0.46,1.14-0.69,2.11-0.69,2.89
	c0,0.28,0.05,0.49,0.15,0.63c0.1,0.14,0.21,0.2,0.34,0.2c0.21,0,0.41-0.09,0.62-0.28c0.5-0.45,1-1.23,1.49-2.32
	C140.83,220.31,141.08,219.43,141.08,218.75"/>
<path class="st2" d="M148.79,217.21l-1.82,6.31c-0.1,0.36-0.15,0.6-0.15,0.71c0,0.06,0.03,0.13,0.08,0.18
	c0.05,0.05,0.11,0.08,0.17,0.08c0.1,0,0.2-0.05,0.3-0.13c0.27-0.21,0.58-0.61,0.96-1.19l0.3,0.18c-0.89,1.56-1.84,2.33-2.85,2.33
	c-0.38,0-0.69-0.11-0.92-0.32c-0.22-0.21-0.34-0.49-0.34-0.82c0-0.22,0.05-0.5,0.15-0.83l1.23-4.24c0.12-0.41,0.18-0.72,0.18-0.92
	c0-0.13-0.05-0.25-0.17-0.35c-0.11-0.1-0.26-0.15-0.46-0.15c-0.09,0-0.19,0-0.32,0.01l0.12-0.35l3-0.49H148.79z M148.24,213.13
	c0.36,0,0.68,0.12,0.93,0.38c0.25,0.25,0.38,0.56,0.38,0.92c0,0.36-0.13,0.67-0.38,0.92c-0.26,0.26-0.57,0.38-0.92,0.38
	c-0.36,0-0.66-0.12-0.92-0.38c-0.25-0.25-0.38-0.56-0.38-0.92c0-0.36,0.13-0.67,0.38-0.92
	C147.56,213.25,147.87,213.13,148.24,213.13"/>
<path class="st2" d="M153.96,218.49l-1.04,4.1c-0.49,1.93-0.96,3.34-1.42,4.21c-0.46,0.87-1.01,1.51-1.62,1.93
	c-0.62,0.42-1.33,0.63-2.13,0.63c-0.5,0-0.87-0.1-1.1-0.29c-0.24-0.19-0.35-0.42-0.35-0.68c0-0.24,0.09-0.45,0.29-0.63
	c0.2-0.18,0.46-0.27,0.77-0.27c0.27,0,0.47,0.07,0.61,0.2c0.14,0.14,0.21,0.31,0.21,0.51c0,0.19-0.05,0.33-0.13,0.42
	c-0.09,0.09-0.13,0.15-0.13,0.18l0.05,0.06c0.04,0.02,0.08,0.04,0.13,0.04c0.18,0,0.32-0.05,0.45-0.17c0.31-0.28,0.55-0.61,0.7-1.01
	c0.11-0.28,0.31-0.99,0.61-2.16l1.81-7.09h-1.24l0.29-1.04c0.45,0.01,0.77-0.05,0.97-0.17c0.2-0.12,0.41-0.38,0.64-0.8
	c0.65-1.2,1.34-2.06,2.06-2.59c0.72-0.52,1.53-0.78,2.42-0.78c0.57,0,0.98,0.11,1.24,0.33c0.26,0.22,0.39,0.5,0.39,0.85
	c0,0.31-0.09,0.55-0.26,0.73c-0.17,0.18-0.38,0.27-0.64,0.27c-0.24,0-0.43-0.07-0.59-0.22c-0.15-0.15-0.23-0.32-0.23-0.53
	c0-0.15,0.05-0.3,0.15-0.47c0.1-0.17,0.15-0.28,0.15-0.34c0-0.07-0.02-0.12-0.07-0.16c-0.04-0.04-0.1-0.06-0.17-0.06
	c-0.35,0-0.71,0.22-1.08,0.65c-0.6,0.69-1.09,1.79-1.45,3.28h1.29l-0.31,1.04H153.96z"/>
<path class="st2" d="M159.89,217.21l-1.82,6.31c-0.1,0.36-0.15,0.6-0.15,0.71c0,0.06,0.03,0.13,0.08,0.18
	c0.05,0.05,0.11,0.08,0.17,0.08c0.1,0,0.2-0.05,0.3-0.13c0.27-0.21,0.58-0.61,0.96-1.19l0.3,0.18c-0.89,1.56-1.84,2.33-2.85,2.33
	c-0.38,0-0.69-0.11-0.92-0.32c-0.23-0.21-0.35-0.49-0.35-0.82c0-0.22,0.05-0.5,0.15-0.83l1.24-4.24c0.12-0.41,0.18-0.72,0.18-0.92
	c0-0.13-0.05-0.25-0.17-0.35c-0.11-0.1-0.27-0.15-0.46-0.15c-0.09,0-0.2,0-0.32,0.01l0.11-0.35l3.01-0.49H159.89z M159.34,213.13
	c0.37,0,0.68,0.12,0.93,0.38c0.25,0.25,0.38,0.56,0.38,0.92c0,0.36-0.13,0.67-0.38,0.92c-0.25,0.26-0.56,0.38-0.92,0.38
	c-0.35,0-0.66-0.12-0.91-0.38c-0.26-0.25-0.38-0.56-0.38-0.92c0-0.36,0.12-0.67,0.38-0.92
	C158.67,213.25,158.98,213.13,159.34,213.13"/>
<path class="st2" d="M167.13,223.3l0.27,0.24c-0.58,0.69-1.14,1.19-1.7,1.51c-0.74,0.43-1.5,0.64-2.29,0.64
	c-0.53,0-1.01-0.11-1.42-0.34c-0.41-0.23-0.71-0.55-0.91-0.96c-0.19-0.41-0.29-0.83-0.29-1.26c0-0.97,0.26-1.93,0.79-2.86
	c0.53-0.94,1.22-1.68,2.09-2.23c0.86-0.55,1.71-0.82,2.55-0.82c0.67,0,1.17,0.15,1.51,0.45c0.34,0.29,0.51,0.66,0.51,1.1
	c0,0.4-0.13,0.73-0.38,1.01c-0.25,0.28-0.54,0.42-0.85,0.42c-0.27,0-0.5-0.09-0.68-0.27c-0.18-0.18-0.27-0.39-0.27-0.63
	c0-0.32,0.16-0.6,0.48-0.84c0.21-0.16,0.33-0.31,0.33-0.43c0-0.11-0.04-0.19-0.13-0.26c-0.12-0.09-0.28-0.14-0.46-0.14
	c-0.5,0-0.97,0.2-1.4,0.61c-0.58,0.53-1.02,1.21-1.33,2.03c-0.31,0.81-0.46,1.59-0.46,2.33c0,0.58,0.16,1.04,0.47,1.39
	c0.31,0.34,0.69,0.52,1.12,0.52c0.38,0,0.79-0.1,1.23-0.29C166.31,223.99,166.73,223.69,167.13,223.3"/>
<path class="st2" d="M177.08,217.33l-1.72,5.9l-0.17,0.72c-0.02,0.09-0.03,0.15-0.03,0.2c0,0.07,0.02,0.13,0.08,0.18
	c0.05,0.05,0.1,0.08,0.15,0.08c0.12,0,0.3-0.09,0.51-0.29c0.09-0.08,0.3-0.35,0.64-0.81l0.31,0.16c-0.41,0.77-0.87,1.33-1.34,1.68
	c-0.48,0.35-0.99,0.53-1.54,0.53c-0.34,0-0.6-0.08-0.78-0.26c-0.18-0.17-0.27-0.4-0.27-0.66c0-0.23,0.1-0.66,0.29-1.28l0.21-0.72
	c-0.68,1.18-1.34,2.01-1.98,2.51c-0.37,0.28-0.76,0.42-1.17,0.42c-0.54,0-0.93-0.22-1.18-0.67c-0.24-0.45-0.36-0.95-0.36-1.51
	c0-0.83,0.25-1.79,0.77-2.87c0.51-1.08,1.17-1.95,2-2.61c0.68-0.54,1.32-0.82,1.92-0.82c0.33,0,0.6,0.1,0.8,0.29
	c0.2,0.19,0.35,0.54,0.44,1.05l0.32-1.09L177.08,217.33z M174.24,219.02c0-0.48-0.07-0.82-0.22-1.04c-0.11-0.15-0.25-0.22-0.44-0.22
	c-0.18,0-0.37,0.09-0.57,0.27c-0.4,0.37-0.82,1.11-1.28,2.23c-0.46,1.12-0.69,2.09-0.69,2.91c0,0.31,0.05,0.54,0.15,0.68
	c0.1,0.14,0.22,0.21,0.34,0.21c0.27,0,0.54-0.16,0.81-0.46c0.39-0.44,0.74-0.97,1.06-1.61
	C173.96,220.87,174.24,219.88,174.24,219.02"/>
<path class="st2" d="M182.29,217.21l-1.14,3.82c0.77-1.17,1.32-1.96,1.67-2.37c0.51-0.6,0.94-0.99,1.27-1.17
	c0.33-0.18,0.67-0.28,1.01-0.28c0.39,0,0.66,0.12,0.84,0.35c0.17,0.23,0.26,0.49,0.26,0.77c0,0.29-0.08,0.72-0.24,1.28l-0.4,1.43
	c0.77-1.19,1.32-1.97,1.66-2.36c0.52-0.6,0.97-1.01,1.36-1.23c0.27-0.15,0.55-0.23,0.85-0.23c0.31,0,0.58,0.11,0.79,0.31
	c0.21,0.21,0.31,0.49,0.31,0.82c0,0.38-0.09,0.87-0.27,1.47l-0.99,3.31c-0.15,0.49-0.22,0.81-0.22,0.95c0,0.05,0.02,0.09,0.06,0.13
	c0.04,0.04,0.08,0.06,0.13,0.06c0.06,0,0.12-0.02,0.17-0.06c0.21-0.17,0.44-0.42,0.68-0.75c0.05-0.07,0.13-0.18,0.24-0.33l0.3,0.2
	c-0.41,0.76-0.85,1.32-1.34,1.68c-0.49,0.35-0.94,0.53-1.36,0.53c-0.36,0-0.65-0.1-0.87-0.3c-0.22-0.2-0.33-0.43-0.33-0.7
	c0-0.25,0.07-0.64,0.22-1.15l1.01-3.46c0.13-0.48,0.2-0.77,0.2-0.89c0-0.04-0.02-0.08-0.06-0.12c-0.05-0.04-0.08-0.06-0.13-0.06
	c-0.07,0-0.15,0.02-0.23,0.06c-0.11,0.05-0.28,0.21-0.52,0.46c-0.24,0.25-0.57,0.69-1.01,1.34c-0.44,0.64-0.74,1.14-0.91,1.5
	c-0.17,0.36-0.34,0.83-0.5,1.4l-0.54,1.83h-2.25l1.66-5.8c0.09-0.31,0.13-0.53,0.13-0.64c0-0.05-0.02-0.08-0.06-0.12
	c-0.04-0.04-0.08-0.05-0.12-0.05c-0.22,0-0.56,0.29-1.04,0.86c-0.72,0.89-1.38,1.96-1.97,3.21l-0.72,2.55h-2.26l1.67-5.71
	c0.16-0.56,0.25-0.96,0.25-1.2c0-0.09-0.02-0.18-0.07-0.24c-0.05-0.07-0.13-0.12-0.23-0.16c-0.11-0.04-0.31-0.06-0.61-0.06
	l0.09-0.33l3.03-0.53H182.29z"/>
<path class="st2" d="M196.43,217.21l-1.72,6.04c-0.08,0.28-0.12,0.47-0.12,0.58c0,0.05,0.02,0.1,0.06,0.12
	c0.05,0.05,0.1,0.07,0.17,0.07c0.27,0,0.64-0.24,1.09-0.73c0.65-0.71,1.34-1.72,2.05-3.03l0.81-2.72l2.25-0.08l-1.7,5.86
	c-0.15,0.5-0.21,0.78-0.21,0.85c0,0.05,0.02,0.1,0.07,0.15c0.05,0.05,0.09,0.07,0.14,0.07c0.08,0,0.16-0.04,0.24-0.1
	c0.21-0.17,0.49-0.52,0.84-1.04l0.3,0.21c-0.82,1.49-1.73,2.23-2.72,2.23c-0.37,0-0.66-0.09-0.87-0.28
	c-0.21-0.19-0.31-0.43-0.31-0.73c0-0.32,0.08-0.72,0.22-1.22l0.44-1.5c-0.77,1.12-1.33,1.87-1.68,2.26
	c-0.53,0.59-0.98,0.98-1.34,1.17c-0.36,0.2-0.71,0.29-1.04,0.29c-0.31,0-0.58-0.12-0.81-0.35c-0.23-0.23-0.35-0.52-0.35-0.88
	c0-0.3,0.07-0.71,0.22-1.22l1.01-3.55c0.16-0.58,0.25-0.97,0.25-1.17c0-0.09-0.02-0.17-0.07-0.24c-0.05-0.07-0.12-0.12-0.24-0.16
	c-0.11-0.04-0.31-0.06-0.61-0.06l0.09-0.33l3.02-0.53H196.43z"/>
<path class="st2" d="M208.47,217.21l-0.39,2.74h-0.32c-0.05-0.71-0.27-1.27-0.66-1.67c-0.39-0.41-0.8-0.61-1.24-0.61
	c-0.27,0-0.5,0.08-0.68,0.24c-0.18,0.16-0.27,0.35-0.27,0.58c0,0.19,0.04,0.37,0.12,0.53c0.08,0.16,0.25,0.39,0.51,0.67
	c0.94,1.01,1.5,1.7,1.7,2.08c0.2,0.38,0.3,0.78,0.3,1.21c0,0.47-0.12,0.91-0.35,1.33c-0.24,0.42-0.59,0.75-1.06,1.01
	c-0.48,0.25-0.97,0.38-1.47,0.38c-0.35,0-0.77-0.07-1.27-0.21c-0.33-0.09-0.58-0.14-0.75-0.14c-0.15,0-0.26,0.02-0.35,0.07
	c-0.08,0.05-0.18,0.14-0.28,0.28h-0.33l0.43-2.95h0.28c0.21,0.72,0.4,1.23,0.58,1.53c0.18,0.31,0.42,0.55,0.72,0.73
	c0.3,0.18,0.59,0.27,0.87,0.27c0.33,0,0.6-0.1,0.81-0.31c0.21-0.21,0.32-0.45,0.32-0.74c0-0.27-0.07-0.54-0.21-0.81
	c-0.14-0.26-0.46-0.67-0.96-1.22c-0.69-0.75-1.15-1.33-1.37-1.74c-0.15-0.29-0.23-0.63-0.23-1.01c0-0.64,0.23-1.17,0.7-1.6
	c0.47-0.42,1.11-0.64,1.96-0.64c0.37,0,0.81,0.07,1.35,0.2c0.27,0.06,0.48,0.1,0.64,0.1c0.23,0,0.42-0.1,0.56-0.3H208.47z"/>
<rect x="87.92" y="77.24" class="st0" width="110.9" height="3.54"/>
<rect x="87.92" y="77.24" class="st3" width="110.9" height="3.54"/>
<g>
	<defs>
		<rect id="SVGID_1_" x="93.38" y="80.97" width="99" height="18.24"/>
	</defs>
	<clipPath id="SVGID_2_">
		<use xlink:href="#SVGID_1_"  style="overflow:visible;"/>
	</clipPath>
	
		<linearGradient id="SVGID_3_" gradientUnits="userSpaceOnUse" x1="549.8441" y1="593.6606" x2="552.8718" y2="593.6606" gradientTransform="matrix(-3.000000e-07 -6.0254 -6.0254 3.000000e-07 3719.9204 3412.2397)">
		<stop  offset="0" style="stop-color:#231E1F"/>
		<stop  offset="0.0644" style="stop-color:#231E1F"/>
		<stop  offset="0.2871" style="stop-color:#FFFFFF"/>
		<stop  offset="0.7475" style="stop-color:#FFFFFF"/>
		<stop  offset="0.9109" style="stop-color:#000000"/>
		<stop  offset="1" style="stop-color:#000000"/>
	</linearGradient>
	<rect x="93.38" y="80.97" class="st4" width="99" height="18.24"/>
</g>
<rect x="93.39" y="80.97" class="st3" width="99" height="18.24"/>
<rect x="84.92" y="76.14" class="st2" width="117" height="2.09"/>
<g>
	<defs>
		<rect id="SVGID_4_" x="97.56" y="106.81" width="9.64" height="66.54"/>
	</defs>
	<clipPath id="SVGID_5_">
		<use xlink:href="#SVGID_4_"  style="overflow:visible;"/>
	</clipPath>
	
		<linearGradient id="SVGID_6_" gradientUnits="userSpaceOnUse" x1="283.3176" y1="366.599" x2="286.3444" y2="366.599" gradientTransform="matrix(3.1846 0 0 -3.1846 -804.681 1307.5376)">
		<stop  offset="0" style="stop-color:#231E1F"/>
		<stop  offset="0.1584" style="stop-color:#FFFFFF"/>
		<stop  offset="0.4455" style="stop-color:#FFFFFF"/>
		<stop  offset="0.5495" style="stop-color:#808184"/>
		<stop  offset="0.6693" style="stop-color:#7F8083"/>
		<stop  offset="0.7124" style="stop-color:#7B7B7E"/>
		<stop  offset="0.7432" style="stop-color:#747476"/>
		<stop  offset="0.7681" style="stop-color:#6B6A6B"/>
		<stop  offset="0.7894" style="stop-color:#5F5C5E"/>
		<stop  offset="0.8083" style="stop-color:#504D4E"/>
		<stop  offset="0.8253" style="stop-color:#3F3B3C"/>
		<stop  offset="0.8405" style="stop-color:#2C2829"/>
		<stop  offset="0.8465" style="stop-color:#231E1F"/>
		<stop  offset="0.9158" style="stop-color:#000000"/>
		<stop  offset="0.9257" style="stop-color:#890477"/>
		<stop  offset="1" style="stop-color:#890477"/>
	</linearGradient>
	<rect x="97.56" y="106.81" class="st5" width="9.64" height="66.54"/>
</g>
<g>
	<defs>
		<rect id="SVGID_7_" x="178.57" y="106.81" width="9.64" height="66.54"/>
	</defs>
	<clipPath id="SVGID_8_">
		<use xlink:href="#SVGID_7_"  style="overflow:visible;"/>
	</clipPath>
	
		<linearGradient id="SVGID_9_" gradientUnits="userSpaceOnUse" x1="300.4385" y1="366.6214" x2="303.4653" y2="366.6214" gradientTransform="matrix(3.1855 0 0 -3.1855 -778.4944 1307.967)">
		<stop  offset="0" style="stop-color:#890477"/>
		<stop  offset="0.0198" style="stop-color:#890477"/>
		<stop  offset="0.0446" style="stop-color:#231E1F"/>
		<stop  offset="0.062" style="stop-color:#262122"/>
		<stop  offset="0.0786" style="stop-color:#302A2B"/>
		<stop  offset="0.0949" style="stop-color:#403939"/>
		<stop  offset="0.111" style="stop-color:#574F4F"/>
		<stop  offset="0.127" style="stop-color:#7A7272"/>
		<stop  offset="0.1427" style="stop-color:#ADA7A7"/>
		<stop  offset="0.1582" style="stop-color:#FDFDFC"/>
		<stop  offset="0.1584" style="stop-color:#FFFFFF"/>
		<stop  offset="0.4455" style="stop-color:#FFFFFF"/>
		<stop  offset="0.5495" style="stop-color:#808184"/>
		<stop  offset="0.6833" style="stop-color:#7F8083"/>
		<stop  offset="0.7315" style="stop-color:#7B7B7E"/>
		<stop  offset="0.7658" style="stop-color:#747476"/>
		<stop  offset="0.7936" style="stop-color:#6B6A6B"/>
		<stop  offset="0.8174" style="stop-color:#5F5C5E"/>
		<stop  offset="0.8384" style="stop-color:#504D4E"/>
		<stop  offset="0.8575" style="stop-color:#3F3B3C"/>
		<stop  offset="0.8744" style="stop-color:#2C2829"/>
		<stop  offset="0.8812" style="stop-color:#231E1F"/>
		<stop  offset="1" style="stop-color:#000000"/>
	</linearGradient>
	<rect x="178.57" y="106.81" class="st6" width="9.64" height="66.54"/>
</g>
<g>
	<defs>
		<rect id="SVGID_10_" x="97.56" y="173.35" width="90.64" height="11.57"/>
	</defs>
	<clipPath id="SVGID_11_">
		<use xlink:href="#SVGID_10_"  style="overflow:visible;"/>
	</clipPath>
	
		<linearGradient id="SVGID_12_" gradientUnits="userSpaceOnUse" x1="650.7916" y1="197.2236" x2="653.8187" y2="197.2236" gradientTransform="matrix(-2.000000e-07 3.8223 3.8223 2.000000e-07 -610.9547 -2314.1506)">
		<stop  offset="0" style="stop-color:#231E1F"/>
		<stop  offset="0.0545" style="stop-color:#231E1F"/>
		<stop  offset="0.0791" style="stop-color:#272223"/>
		<stop  offset="0.1073" style="stop-color:#332D2D"/>
		<stop  offset="0.1373" style="stop-color:#463F3F"/>
		<stop  offset="0.1686" style="stop-color:#635B5B"/>
		<stop  offset="0.2009" style="stop-color:#908888"/>
		<stop  offset="0.2334" style="stop-color:#D2CECE"/>
		<stop  offset="0.2475" style="stop-color:#FFFFFF"/>
		<stop  offset="0.401" style="stop-color:#FFFFFF"/>
		<stop  offset="0.4043" style="stop-color:#EBEAEA"/>
		<stop  offset="0.4134" style="stop-color:#CAC8C9"/>
		<stop  offset="0.4236" style="stop-color:#B1AFB1"/>
		<stop  offset="0.4352" style="stop-color:#9E9C9F"/>
		<stop  offset="0.4486" style="stop-color:#908F92"/>
		<stop  offset="0.4651" style="stop-color:#87878A"/>
		<stop  offset="0.4881" style="stop-color:#818285"/>
		<stop  offset="0.5495" style="stop-color:#808184"/>
		<stop  offset="0.6693" style="stop-color:#7F8083"/>
		<stop  offset="0.7124" style="stop-color:#7B7B7E"/>
		<stop  offset="0.7432" style="stop-color:#747476"/>
		<stop  offset="0.7681" style="stop-color:#6B6A6B"/>
		<stop  offset="0.7894" style="stop-color:#5F5C5E"/>
		<stop  offset="0.8083" style="stop-color:#504D4E"/>
		<stop  offset="0.8253" style="stop-color:#3F3B3C"/>
		<stop  offset="0.8405" style="stop-color:#2C2829"/>
		<stop  offset="0.8465" style="stop-color:#231E1F"/>
		<stop  offset="1" style="stop-color:#000000"/>
	</linearGradient>
	<rect x="97.56" y="173.35" class="st7" width="90.64" height="11.57"/>
</g>
<g>
	<defs>
		<rect id="SVGID_13_" x="83.1" y="184.28" width="119.57" height="9.65"/>
	</defs>
	<clipPath id="SVGID_14_">
		<use xlink:href="#SVGID_13_"  style="overflow:visible;"/>
	</clipPath>
	
		<linearGradient id="SVGID_15_" gradientUnits="userSpaceOnUse" x1="666.4422" y1="148.7406" x2="669.47" y2="148.7406" gradientTransform="matrix(-2.000000e-07 3.1855 3.1855 2.000000e-07 -330.9338 -1938.7063)">
		<stop  offset="0" style="stop-color:#231E1F"/>
		<stop  offset="0.0495" style="stop-color:#231E1F"/>
		<stop  offset="0.0675" style="stop-color:#282324"/>
		<stop  offset="0.0913" style="stop-color:#363030"/>
		<stop  offset="0.1185" style="stop-color:#4D4646"/>
		<stop  offset="0.148" style="stop-color:#716A6A"/>
		<stop  offset="0.1791" style="stop-color:#ABA5A5"/>
		<stop  offset="0.2079" style="stop-color:#FFFFFF"/>
		<stop  offset="0.3564" style="stop-color:#FFFFFF"/>
		<stop  offset="0.3609" style="stop-color:#EAE9E9"/>
		<stop  offset="0.3724" style="stop-color:#CAC7C8"/>
		<stop  offset="0.3854" style="stop-color:#B1AEB0"/>
		<stop  offset="0.4001" style="stop-color:#9E9C9F"/>
		<stop  offset="0.4172" style="stop-color:#908F92"/>
		<stop  offset="0.4384" style="stop-color:#86878A"/>
		<stop  offset="0.468" style="stop-color:#818285"/>
		<stop  offset="0.5495" style="stop-color:#808184"/>
		<stop  offset="0.5903" style="stop-color:#7E7F82"/>
		<stop  offset="0.6252" style="stop-color:#78787B"/>
		<stop  offset="0.6579" style="stop-color:#6E6D6F"/>
		<stop  offset="0.6893" style="stop-color:#605E60"/>
		<stop  offset="0.7198" style="stop-color:#4F4C4D"/>
		<stop  offset="0.7491" style="stop-color:#3B3738"/>
		<stop  offset="0.7772" style="stop-color:#231E1F"/>
		<stop  offset="1" style="stop-color:#000000"/>
	</linearGradient>
	<rect x="83.1" y="184.28" class="st8" width="119.57" height="9.65"/>
</g>
<g>
	<defs>
		<rect id="SVGID_16_" x="72.17" y="193.92" width="141.75" height="14.46"/>
	</defs>
	<clipPath id="SVGID_17_">
		<use xlink:href="#SVGID_16_"  style="overflow:visible;"/>
	</clipPath>
	
		<linearGradient id="SVGID_18_" gradientUnits="userSpaceOnUse" x1="640.3196" y1="245.7391" x2="643.3467" y2="245.7391" gradientTransform="matrix(-3.000000e-07 4.7773 4.7773 3.000000e-07 -1030.9332 -2865.1055)">
		<stop  offset="0" style="stop-color:#231E1F"/>
		<stop  offset="0.0396" style="stop-color:#231E1F"/>
		<stop  offset="0.0569" style="stop-color:#272122"/>
		<stop  offset="0.0742" style="stop-color:#302B2B"/>
		<stop  offset="0.0916" style="stop-color:#413A3A"/>
		<stop  offset="0.1089" style="stop-color:#5A5252"/>
		<stop  offset="0.1263" style="stop-color:#7F7777"/>
		<stop  offset="0.1434" style="stop-color:#B4AFAF"/>
		<stop  offset="0.1584" style="stop-color:#FFFFFF"/>
		<stop  offset="0.3218" style="stop-color:#FFFFFF"/>
		<stop  offset="0.3271" style="stop-color:#EAE9E9"/>
		<stop  offset="0.3407" style="stop-color:#CAC7C8"/>
		<stop  offset="0.356" style="stop-color:#B1AEB0"/>
		<stop  offset="0.3733" style="stop-color:#9E9C9F"/>
		<stop  offset="0.3935" style="stop-color:#908F92"/>
		<stop  offset="0.4184" style="stop-color:#86878A"/>
		<stop  offset="0.4534" style="stop-color:#818285"/>
		<stop  offset="0.5495" style="stop-color:#808184"/>
		<stop  offset="0.5655" style="stop-color:#7E7F82"/>
		<stop  offset="0.5791" style="stop-color:#78787B"/>
		<stop  offset="0.5919" style="stop-color:#6E6D6F"/>
		<stop  offset="0.6042" style="stop-color:#605E60"/>
		<stop  offset="0.6161" style="stop-color:#4F4C4D"/>
		<stop  offset="0.6276" style="stop-color:#3B3738"/>
		<stop  offset="0.6386" style="stop-color:#231E1F"/>
		<stop  offset="1" style="stop-color:#000000"/>
	</linearGradient>
	<rect x="72.17" y="193.92" class="st9" width="141.75" height="14.46"/>
</g>
<rect x="93.55" y="98.78" class="st0" width="98.84" height="8.03"/>
<rect x="93.55" y="98.78" class="st3" width="98.84" height="8.03"/>
<rect x="95.85" y="84.4" class="st0" width="6.64" height="5.14"/>
<rect x="95.85" y="84.4" class="st10" width="6.64" height="5.14"/>
<rect x="104.55" y="84.4" class="st0" width="6.64" height="5.14"/>
<rect x="104.55" y="84.4" class="st10" width="6.64" height="5.14"/>
<rect x="113.25" y="84.4" class="st0" width="6.64" height="5.14"/>
<rect x="113.25" y="84.4" class="st10" width="6.64" height="5.14"/>
<rect x="121.95" y="84.4" class="st0" width="6.64" height="5.14"/>
<rect x="121.95" y="84.4" class="st10" width="6.64" height="5.14"/>
<rect x="130.65" y="84.4" class="st0" width="6.64" height="5.14"/>
<rect x="130.65" y="84.4" class="st10" width="6.64" height="5.14"/>
<rect x="139.35" y="84.4" class="st0" width="6.64" height="5.14"/>
<rect x="139.35" y="84.4" class="st10" width="6.64" height="5.14"/>
<rect x="148.05" y="84.4" class="st0" width="6.65" height="5.14"/>
<rect x="148.05" y="84.4" class="st10" width="6.65" height="5.14"/>
<rect x="156.75" y="84.4" class="st0" width="6.64" height="5.14"/>
<rect x="156.75" y="84.4" class="st10" width="6.64" height="5.14"/>
<rect x="165.45" y="84.4" class="st0" width="6.65" height="5.14"/>
<rect x="165.45" y="84.4" class="st10" width="6.65" height="5.14"/>
<rect x="174.16" y="84.4" class="st0" width="6.64" height="5.14"/>
<rect x="174.16" y="84.4" class="st10" width="6.64" height="5.14"/>
<rect x="182.85" y="84.4" class="st0" width="6.64" height="5.14"/>
<rect x="182.85" y="84.4" class="st10" width="6.64" height="5.14"/>
<path class="st11" d="M127.29,125.48c5.13-0.19,9.29,1.3,12.49,4.48c3.21,3.18,4.8,7.16,4.8,11.93c0,4.08-1.19,7.67-3.58,10.77
	c-3.16,4.11-7.63,6.17-13.4,6.17c-5.79,0-10.27-1.96-13.43-5.89c-2.5-3.1-3.75-6.78-3.75-11.03c0-4.77,1.63-8.76,4.87-11.95
	C118.55,126.79,122.55,125.29,127.29,125.48 M127.58,127c-2.95,0-5.94,1.5-7.47,4.51c-1.25,2.47-1.87,6.01-1.87,10.63
	c0,5.49,0.96,9.54,2.89,12.17c1.35,1.83,3.98,2.75,6.4,2.75c1.63,0,3.74-0.4,4.83-1.19c1.39-1.01,2.47-2.63,3.25-4.85
	c0.77-2.22,1.16-5.13,1.16-8.7c0-4.26-0.4-7.44-1.19-9.55c-0.79-2.11-1.8-3.6-3.03-4.47C131.34,127.43,129.17,127,127.58,127"/>
<path class="st11" d="M175.84,125.19v11.15h-0.93c-0.69-2.91-1.99-5.14-3.89-6.69c-1.9-1.55-4.05-2.33-6.45-2.33
	c-2.01,0-3.85,0.58-5.53,1.73c-1.68,1.15-2.9,2.67-3.68,4.53c-1,2.39-1.5,5.04-1.5,7.97c0,2.88,0.37,5.5,1.1,7.87
	c0.73,2.36,1.87,4.15,3.41,5.36c1.55,1.21,3.56,1.82,6.03,1.82c2.02,0,3.88-0.45,5.56-1.33c1.68-0.88,3.46-2.41,5.32-4.58v2.77
	c-1.8,1.88-3.68,3.25-5.64,4.09c-1.95,0.85-4.23,1.27-6.84,1.27c-3.43,0-6.48-0.69-9.14-2.06c-2.67-1.38-4.72-3.36-6.17-5.93
	c-1.45-2.58-2.17-5.33-2.17-8.23c0-3.07,0.8-5.98,2.4-8.73c1.61-2.75,3.78-4.89,6.5-6.41c2.73-1.52,5.63-2.28,8.69-2.28
	c2.26,0,4.65,0.49,7.17,1.47c1.45,0.57,2.38,0.86,2.77,0.86c0.51,0,0.94-0.19,1.32-0.56c0.37-0.37,0.61-0.96,0.72-1.77H175.84z"/>
<path class="st11" d="M142.12,149.25h-11.36l-1.35,3.13c-0.44,1.04-0.66,1.91-0.66,2.59c0,0.9,0.36,1.56,1.09,1.99
	c0.43,0.26,1.48,0.44,3.16,0.57v0.88h-10.7v-0.88c1.16-0.17,2.1-0.65,2.85-1.43c0.74-0.78,1.66-2.4,2.75-4.85l11.51-25.67h0.45
	l11.59,26.38c1.11,2.5,2.02,4.07,2.73,4.72c0.54,0.49,1.3,0.78,2.28,0.85v0.88h-15.56v-0.88h0.64c1.25,0,2.12-0.17,2.63-0.52
	c0.35-0.25,0.52-0.62,0.52-1.1c0-0.28-0.05-0.58-0.15-0.88c-0.03-0.14-0.26-0.73-0.71-1.78L142.12,149.25z M141.31,147.49
	l-4.79-11.08l-4.93,11.08H141.31z"/>
<g>
	<path class="st11" d="M17.52,163.87c-2.77,0-4.93-0.77-6.47-2.32c-1.54-1.55-2.32-3.7-2.32-6.46c0-2.83,0.76-5,2.28-6.53
		c1.51-1.53,3.64-2.29,6.38-2.29c1.99,0,3.61,0.33,4.88,1c1.27,0.67,2.26,1.63,2.97,2.9c0.7,1.27,1.06,2.84,1.06,4.73
		c0,1.91-0.31,3.5-0.92,4.75c-0.61,1.25-1.58,2.27-2.9,3.05C21.16,163.48,19.5,163.87,17.52,163.87 M17.55,158.63
		c1.71,0,2.95-0.32,3.69-0.95c0.75-0.64,1.12-1.5,1.12-2.6c0-1.13-0.36-2-1.1-2.62c-0.74-0.62-2.05-0.93-3.95-0.93
		c-1.6,0-2.76,0.32-3.5,0.97c-0.74,0.64-1.11,1.52-1.11,2.62c0,1.06,0.38,1.91,1.13,2.55C14.58,158.31,15.82,158.63,17.55,158.63"/>
	<path class="st11" d="M14.2,143.19l0.53-4.38l2,0.24c-0.82-0.53-1.36-1.03-1.63-1.52c-0.27-0.49-0.37-1.06-0.29-1.72
		c0.08-0.69,0.39-1.42,0.92-2.19l3.16,1.85c-0.3,0.53-0.47,0.95-0.51,1.27c-0.08,0.62,0.12,1.12,0.59,1.52
		c0.65,0.57,1.96,0.97,3.91,1.21l4.1,0.5l-0.57,4.7L14.2,143.19z"/>
	<path class="st11" d="M14.06,118.05l16.54,3.87l-1.01,4.3l-1.77-0.41c0.61,0.78,0.99,1.44,1.14,2c0.19,0.74,0.19,1.52,0,2.33
		c-0.38,1.63-1.3,2.73-2.74,3.31c-1.44,0.57-3.05,0.65-4.82,0.23c-1.99-0.46-3.39-1.3-4.22-2.49c-0.83-1.2-1.07-2.53-0.73-4
		c0.17-0.72,0.44-1.34,0.81-1.86c0.38-0.52,0.86-0.96,1.45-1.3l-5.73-1.34L14.06,118.05z M23.49,125.12
		c-0.94-0.22-1.69-0.19-2.24,0.11c-0.55,0.29-0.9,0.74-1.04,1.35c-0.13,0.54-0.01,1.04,0.35,1.5c0.36,0.47,1.06,0.82,2.11,1.06
		c0.97,0.23,1.74,0.21,2.28-0.05c0.54-0.27,0.87-0.67,1.01-1.22c0.13-0.58,0.02-1.13-0.35-1.63
		C25.23,125.73,24.53,125.36,23.49,125.12"/>
	<path class="st11" d="M19.68,115.98l1.45-4.17l1.9,0.66c-0.68-0.69-1.1-1.3-1.27-1.84c-0.16-0.53-0.13-1.11,0.09-1.74
		c0.22-0.66,0.68-1.3,1.36-1.94l2.69,2.48c-0.4,0.45-0.66,0.82-0.76,1.13c-0.21,0.58-0.12,1.12,0.25,1.61
		c0.52,0.7,1.7,1.37,3.57,2.01l3.9,1.36l-1.56,4.47L19.68,115.98z"/>
	<path class="st11" d="M35.9,96.12l-4.05,8.54c0.72,0.25,1.32,0.31,1.79,0.17c0.68-0.18,1.17-0.61,1.49-1.27
		c0.2-0.42,0.28-0.87,0.25-1.34c-0.02-0.29-0.14-0.65-0.35-1.07l2.38-4.01c0.81,1.17,1.24,2.33,1.3,3.46
		c0.05,1.14-0.32,2.56-1.12,4.25c-0.7,1.47-1.45,2.53-2.27,3.18c-0.81,0.65-1.81,1.04-2.97,1.16c-1.17,0.13-2.36-0.1-3.58-0.68
		c-1.73-0.82-2.88-2.04-3.42-3.67c-0.55-1.62-0.36-3.41,0.57-5.38c0.75-1.59,1.59-2.73,2.51-3.43c0.92-0.69,1.94-1.06,3.08-1.11
		c1.15-0.05,2.45,0.28,3.91,0.97L35.9,96.12z M31.81,99.49c-0.86-0.31-1.56-0.36-2.08-0.17c-0.53,0.19-0.93,0.58-1.2,1.17
		c-0.32,0.68-0.31,1.34,0.04,2c0.21,0.42,0.63,0.82,1.27,1.2L31.81,99.49z"/>
	<path class="st11" d="M38.63,70.6l13.74,9.99l-2.59,3.57l-1.47-1.07c0.26,0.95,0.35,1.72,0.26,2.29c-0.11,0.76-0.41,1.47-0.9,2.15
		c-0.98,1.36-2.26,2.02-3.81,1.99c-1.55-0.04-3.06-0.59-4.53-1.66c-1.65-1.2-2.62-2.51-2.92-3.94c-0.3-1.43-0.01-2.75,0.88-3.96
		c0.43-0.6,0.93-1.06,1.47-1.4c0.56-0.34,1.17-0.55,1.84-0.63l-4.76-3.47L38.63,70.6z M44.59,80.77c-0.78-0.57-1.48-0.83-2.11-0.77
		c-0.62,0.05-1.12,0.33-1.49,0.84c-0.33,0.44-0.41,0.95-0.26,1.51c0.15,0.57,0.66,1.17,1.53,1.8c0.81,0.59,1.52,0.87,2.12,0.84
		c0.6-0.04,1.07-0.28,1.4-0.74c0.35-0.49,0.46-1.03,0.31-1.63C45.95,82.01,45.45,81.4,44.59,80.77"/>
	<path class="st11" d="M59.32,65.73l-6.48,6.89c0.61,0.46,1.16,0.69,1.65,0.71c0.7,0.03,1.3-0.22,1.81-0.75
		c0.31-0.34,0.53-0.73,0.65-1.2c0.07-0.28,0.07-0.66,0-1.13l3.49-3.09c0.41,1.36,0.47,2.6,0.18,3.7c-0.3,1.1-1.09,2.33-2.37,3.7
		c-1.12,1.18-2.16,1.96-3.14,2.33c-0.97,0.37-2.04,0.43-3.18,0.2c-1.15-0.24-2.22-0.82-3.21-1.75c-1.4-1.31-2.11-2.83-2.13-4.54
		c-0.03-1.71,0.71-3.36,2.19-4.94c1.21-1.29,2.35-2.12,3.44-2.49c1.09-0.38,2.18-0.41,3.28-0.11c1.1,0.31,2.25,1.01,3.43,2.12
		L59.32,65.73z M54.39,67.69c-0.73-0.56-1.37-0.82-1.93-0.81c-0.55,0.02-1.06,0.27-1.5,0.74c-0.51,0.55-0.71,1.19-0.58,1.92
		c0.08,0.46,0.35,0.97,0.84,1.53L54.39,67.69z"/>
	<path class="st11" d="M61.07,66.28l3.31-3.35c0.5,0.3,0.97,0.43,1.39,0.39c0.42-0.04,0.85-0.25,1.3-0.62
		c0.48-0.41,0.77-0.82,0.87-1.25c0.08-0.32,0.02-0.61-0.18-0.84c-0.22-0.26-0.52-0.34-0.91-0.26c-0.28,0.06-0.9,0.38-1.86,0.93
		c-1.44,0.83-2.48,1.36-3.12,1.58c-0.64,0.22-1.32,0.25-2.03,0.09c-0.71-0.16-1.3-0.53-1.77-1.1c-0.52-0.62-0.79-1.31-0.8-2.06
		c-0.02-0.75,0.2-1.5,0.65-2.26c0.45-0.75,1.2-1.57,2.27-2.47c1.13-0.94,2.03-1.55,2.71-1.83c0.68-0.28,1.35-0.38,2.01-0.32
		c0.66,0.06,1.37,0.3,2.12,0.72l-3.14,3.21c-0.34-0.23-0.68-0.33-1-0.29c-0.45,0.05-0.87,0.24-1.27,0.58
		c-0.41,0.34-0.64,0.66-0.71,0.97c-0.07,0.3-0.01,0.55,0.16,0.76c0.2,0.23,0.46,0.31,0.8,0.23c0.33-0.08,0.94-0.41,1.81-0.97
		c1.31-0.87,2.37-1.43,3.16-1.68c0.79-0.25,1.53-0.28,2.22-0.08c0.69,0.18,1.25,0.55,1.7,1.09c0.46,0.54,0.74,1.21,0.84,2
		c0.1,0.79-0.08,1.63-0.53,2.53c-0.45,0.9-1.29,1.85-2.51,2.88c-1.72,1.44-3.16,2.23-4.3,2.35C63.09,67.32,62.03,67.01,61.07,66.28"
		/>
	<path class="st11" d="M88.25,47.93l-5.21,2.89l0.64,2.85l-4.69,2.6l-2.64-17.95l5-2.77l13.81,11.76l-4.8,2.66L88.25,47.93z
		 M85.52,45.24l-4.6-4.43l1.34,6.24L85.52,45.24z"/>
	<path class="st11" d="M91.03,36.01l4.08-1.68l0.77,1.87c0.06-0.97,0.24-1.7,0.53-2.17c0.29-0.47,0.74-0.84,1.36-1.09
		c0.64-0.26,1.43-0.36,2.36-0.27l-0.07,3.66c-0.6,0-1.05,0.06-1.35,0.18c-0.57,0.24-0.92,0.66-1.04,1.26
		c-0.18,0.85,0.11,2.19,0.86,4.01l1.57,3.81l-4.38,1.8L91.03,36.01z"/>
	<path class="st11" d="M112.44,36.37l4.45-0.76c0.02,0.97-0.14,1.86-0.49,2.67c-0.35,0.81-0.89,1.53-1.63,2.13
		c-0.74,0.61-1.76,1.1-3.05,1.48c-1.25,0.36-2.33,0.55-3.24,0.56c-0.9,0.01-1.73-0.16-2.48-0.51c-0.75-0.35-1.4-0.83-1.95-1.43
		c-0.54-0.61-0.99-1.49-1.33-2.66c-0.35-1.21-0.44-2.29-0.26-3.22c0.13-0.68,0.39-1.33,0.78-1.96c0.39-0.62,0.83-1.13,1.32-1.52
		c0.77-0.62,1.86-1.13,3.24-1.53c1.93-0.56,3.5-0.64,4.71-0.25c1.22,0.4,2.22,1.2,3.02,2.41l-4.1,1.8
		c-0.28-0.46-0.63-0.78-1.06-0.93c-0.42-0.15-0.94-0.14-1.53,0.03c-0.75,0.22-1.28,0.66-1.59,1.33c-0.31,0.67-0.3,1.55,0.01,2.64
		c0.28,0.97,0.73,1.64,1.33,2.01c0.61,0.37,1.27,0.45,1.98,0.24c0.59-0.17,1.05-0.47,1.37-0.89
		C112.26,37.61,112.43,37.06,112.44,36.37"/>
	<path class="st11" d="M116.19,22.84l4.66-0.75l1,6.18c0.52-0.76,1.08-1.33,1.66-1.71c0.58-0.38,1.3-0.64,2.15-0.78
		c1.27-0.21,2.33,0.02,3.18,0.67c0.85,0.66,1.4,1.78,1.67,3.37l1.24,7.72l-4.68,0.75l-1.08-6.68c-0.12-0.77-0.35-1.28-0.68-1.55
		c-0.33-0.27-0.75-0.36-1.27-0.28c-0.56,0.09-0.99,0.38-1.27,0.86c-0.28,0.48-0.33,1.28-0.16,2.38l0.94,5.83l-4.65,0.75
		L116.19,22.84z"/>
	<path class="st11" d="M132.76,20.54l4.7-0.31l0.21,3.2l-4.7,0.31L132.76,20.54z M133.08,25.22l4.7-0.31l0.82,12.28l-4.7,0.31
		L133.08,25.22z"/>
	<path class="st11" d="M146.53,20.09v4.68h2.59v3.45h-2.59v4.36c0,0.53,0.05,0.87,0.15,1.04c0.15,0.26,0.42,0.39,0.81,0.39
		c0.35,0,0.84-0.1,1.46-0.3l0.35,3.25c-1.17,0.25-2.26,0.38-3.26,0.38c-1.18,0-2.04-0.15-2.59-0.45c-0.56-0.3-0.97-0.76-1.24-1.37
		c-0.27-0.61-0.4-1.61-0.4-2.98v-4.33h-1.74v-3.45h1.74v-2.26L146.53,20.09z"/>
	<path class="st11" d="M164.62,33.56l-9.4-1c0.01,0.76,0.15,1.34,0.43,1.74c0.4,0.58,0.96,0.91,1.69,0.98
		c0.46,0.05,0.91-0.02,1.35-0.2c0.27-0.12,0.57-0.35,0.9-0.68l4.58,0.92c-0.84,1.16-1.79,1.94-2.85,2.37
		c-1.05,0.43-2.52,0.54-4.38,0.34c-1.62-0.18-2.87-0.54-3.75-1.1c-0.88-0.55-1.58-1.37-2.08-2.42c-0.51-1.06-0.68-2.26-0.54-3.61
		c0.21-1.91,0.99-3.39,2.34-4.45c1.35-1.05,3.11-1.46,5.26-1.23c1.75,0.19,3.11,0.6,4.06,1.24c0.96,0.64,1.65,1.49,2.07,2.55
		c0.42,1.06,0.54,2.4,0.37,4.01L164.62,33.56z M160.09,30.8c0.01-0.92-0.17-1.59-0.52-2.03c-0.35-0.43-0.85-0.68-1.5-0.75
		c-0.74-0.08-1.37,0.15-1.88,0.7c-0.32,0.34-0.56,0.87-0.71,1.59L160.09,30.8z"/>
	<path class="st11" d="M175.31,36.18l4.24,1.53c-0.45,0.85-1.03,1.55-1.74,2.08c-0.71,0.54-1.53,0.89-2.47,1.06
		c-0.94,0.17-2.07,0.09-3.38-0.22c-1.27-0.3-2.3-0.67-3.09-1.11c-0.79-0.44-1.43-0.99-1.91-1.67c-0.48-0.68-0.81-1.41-0.99-2.2
		c-0.18-0.8-0.12-1.78,0.15-2.96c0.29-1.23,0.74-2.21,1.36-2.93c0.45-0.53,1-0.97,1.65-1.32c0.65-0.35,1.28-0.58,1.9-0.67
		c0.98-0.16,2.17-0.07,3.57,0.26c1.95,0.46,3.36,1.16,4.22,2.11c0.86,0.94,1.34,2.13,1.43,3.58l-4.46-0.44
		c-0.01-0.55-0.17-0.99-0.46-1.33c-0.3-0.35-0.74-0.59-1.35-0.73c-0.76-0.18-1.44-0.05-2.03,0.38c-0.6,0.43-1.03,1.2-1.29,2.3
		c-0.23,0.98-0.18,1.79,0.17,2.41c0.35,0.62,0.88,1.02,1.6,1.19c0.6,0.14,1.14,0.11,1.63-0.11
		C174.54,37.17,174.96,36.77,175.31,36.18"/>
	<path class="st11" d="M190.72,28.28l-1.55,4.42l2.45,0.86l-1.14,3.26l-2.45-0.86l-1.44,4.11c-0.17,0.5-0.24,0.84-0.2,1.03
		c0.06,0.3,0.27,0.51,0.64,0.64c0.33,0.11,0.82,0.18,1.48,0.2l-0.75,3.18c-1.18-0.14-2.26-0.38-3.21-0.72
		c-1.11-0.39-1.88-0.81-2.3-1.28c-0.42-0.47-0.66-1.03-0.71-1.7c-0.05-0.67,0.15-1.65,0.61-2.95l1.43-4.08l-1.64-0.58l1.14-3.26
		l1.64,0.57l0.75-2.13L190.72,28.28z"/>
	<path class="st11" d="M203.36,46.93l-8.55-4.04c-0.25,0.72-0.3,1.32-0.17,1.79c0.18,0.68,0.61,1.17,1.27,1.49
		c0.42,0.2,0.86,0.28,1.34,0.25c0.29-0.03,0.65-0.14,1.07-0.35l4.01,2.38c-1.17,0.81-2.33,1.25-3.46,1.3
		c-1.14,0.06-2.56-0.31-4.26-1.12c-1.47-0.69-2.53-1.45-3.18-2.26c-0.65-0.82-1.04-1.81-1.17-2.97c-0.13-1.17,0.1-2.36,0.68-3.58
		c0.82-1.74,2.04-2.88,3.66-3.43c1.63-0.54,3.41-0.36,5.38,0.57c1.59,0.75,2.73,1.59,3.43,2.51c0.69,0.92,1.06,1.94,1.11,3.09
		c0.05,1.14-0.27,2.45-0.97,3.91L203.36,46.93z M199.99,42.84c0.3-0.86,0.36-1.56,0.17-2.08c-0.19-0.53-0.58-0.93-1.17-1.21
		c-0.68-0.32-1.34-0.31-2.01,0.04c-0.41,0.21-0.82,0.64-1.2,1.27L199.99,42.84z"/>
	<path class="st11" d="M203.37,48.76l4.2,2.12c-0.13,0.58-0.12,1.05,0.05,1.44c0.17,0.39,0.5,0.74,0.99,1.04
		c0.53,0.34,1.02,0.49,1.46,0.44c0.33-0.02,0.58-0.17,0.74-0.42c0.18-0.29,0.17-0.61-0.03-0.95c-0.15-0.25-0.63-0.74-1.46-1.49
		c-1.23-1.11-2.06-1.94-2.46-2.49c-0.41-0.54-0.65-1.18-0.71-1.9c-0.06-0.72,0.11-1.39,0.5-2.02c0.43-0.68,1.01-1.15,1.71-1.4
		c0.71-0.24,1.5-0.27,2.35-0.07c0.85,0.2,1.86,0.67,3.04,1.41c1.24,0.78,2.1,1.45,2.57,2.01c0.47,0.57,0.78,1.17,0.93,1.82
		c0.14,0.64,0.13,1.39-0.04,2.23l-4.02-2.01c0.11-0.4,0.11-0.74-0.02-1.04c-0.18-0.41-0.5-0.75-0.94-1.03
		c-0.45-0.28-0.83-0.41-1.14-0.38c-0.31,0.03-0.53,0.16-0.68,0.39c-0.16,0.25-0.15,0.53,0.03,0.83c0.18,0.29,0.68,0.77,1.49,1.42
		c1.23,0.99,2.09,1.82,2.56,2.49c0.48,0.67,0.73,1.37,0.76,2.08c0.03,0.71-0.14,1.36-0.52,1.96c-0.38,0.6-0.93,1.07-1.65,1.41
		c-0.72,0.34-1.58,0.43-2.57,0.28c-0.99-0.16-2.16-0.66-3.51-1.5c-1.9-1.2-3.08-2.32-3.55-3.38C203,51,202.97,49.91,203.37,48.76"/>
	<path class="st11" d="M240.4,60.03l-11.49,12.51l-3.25-2.99l1.23-1.34c-0.98,0.15-1.75,0.16-2.31,0.01
		c-0.74-0.2-1.42-0.58-2.03-1.14c-1.24-1.13-1.75-2.47-1.53-4.01c0.21-1.54,0.93-2.98,2.16-4.32c1.38-1.5,2.79-2.32,4.24-2.46
		c1.45-0.14,2.73,0.31,3.84,1.33c0.54,0.5,0.95,1.04,1.22,1.63c0.28,0.58,0.41,1.21,0.42,1.9l3.98-4.34L240.4,60.03z M229.62,64.79
		c0.66-0.71,0.99-1.38,1.01-2.01c0.02-0.63-0.2-1.15-0.66-1.58c-0.4-0.37-0.9-0.51-1.48-0.43c-0.58,0.08-1.23,0.52-1.96,1.31
		c-0.67,0.74-1.04,1.41-1.07,2.01c-0.04,0.61,0.15,1.1,0.57,1.48c0.44,0.41,0.97,0.57,1.59,0.5
		C228.23,66.01,228.9,65.58,229.62,64.79"/>
	<path class="st11" d="M238.63,83.81l-2.85-3.35l1.52-1.29c-1.05,0.03-1.92-0.1-2.62-0.38c-0.7-0.28-1.36-0.8-1.99-1.54
		c-0.84-0.99-1.2-2.02-1.09-3.08c0.11-1.07,0.78-2.12,2.02-3.16l5.97-5.06l3.07,3.61l-5.16,4.37c-0.59,0.5-0.91,0.97-0.97,1.39
		c-0.07,0.43,0.07,0.84,0.4,1.24c0.37,0.43,0.83,0.64,1.39,0.64c0.56-0.01,1.27-0.37,2.13-1.1l4.51-3.83l3.05,3.6L238.63,83.81z"/>
	<path class="st11" d="M255.62,98l1.02,4.7c-1.28,0.35-2.46,0.45-3.54,0.29c-1.08-0.16-2.05-0.56-2.91-1.21
		c-0.86-0.65-1.67-1.64-2.4-2.97c-0.9-1.62-1.39-3.06-1.49-4.35c-0.1-1.28,0.24-2.62,1-4.02c0.77-1.4,2.08-2.61,3.92-3.63
		c2.46-1.37,4.71-1.76,6.75-1.18c2.05,0.58,3.73,2.06,5.06,4.45c1.04,1.87,1.48,3.55,1.31,5.04c-0.16,1.49-0.88,2.93-2.16,4.32
		l-3.15-3.55c0.37-0.39,0.62-0.73,0.74-1c0.21-0.45,0.31-0.92,0.29-1.39c-0.02-0.48-0.15-0.94-0.41-1.4
		c-0.58-1.04-1.44-1.6-2.58-1.7c-0.85-0.07-1.94,0.26-3.27,1c-1.65,0.91-2.64,1.79-2.97,2.63c-0.34,0.84-0.25,1.71,0.25,2.62
		c0.49,0.88,1.1,1.4,1.84,1.58C253.67,98.39,254.57,98.32,255.62,98"/>
	<path class="st11" d="M257.67,103.81c1.75-0.68,3.42-0.65,5.01,0.09c1.59,0.74,2.78,2.12,3.55,4.13c0.89,2.3,0.9,4.29,0.02,5.98
		c-0.71,1.36-1.85,2.34-3.42,2.95c-1.76,0.68-3.44,0.66-5.02-0.08c-1.58-0.73-2.77-2.13-3.57-4.2c-0.72-1.84-0.83-3.52-0.33-5.02
		C254.54,105.83,255.79,104.54,257.67,103.81 M259.39,108.22c-1.03,0.4-1.7,0.9-2.03,1.5c-0.33,0.6-0.37,1.22-0.13,1.84
		c0.25,0.63,0.69,1.06,1.33,1.28c0.64,0.22,1.49,0.12,2.56-0.29c0.99-0.38,1.65-0.87,1.98-1.48c0.33-0.6,0.38-1.2,0.14-1.8
		c-0.25-0.64-0.7-1.08-1.36-1.3C261.23,107.74,260.4,107.83,259.39,108.22"/>
	<path class="st11" d="M269.38,117.5l1.06,4.26l-1.94,0.48c0.95,0.44,1.68,0.95,2.18,1.51c0.5,0.57,0.87,1.32,1.1,2.26
		c0.32,1.27,0.18,2.35-0.39,3.25c-0.58,0.9-1.65,1.55-3.22,1.94l-7.59,1.88l-1.14-4.6l6.57-1.63c0.75-0.19,1.24-0.46,1.49-0.81
		c0.24-0.35,0.3-0.78,0.18-1.29c-0.14-0.55-0.46-0.95-0.97-1.19c-0.51-0.24-1.3-0.23-2.39,0.04l-5.73,1.42l-1.14-4.57L269.38,117.5z
		"/>
	<path class="st11" d="M274.11,141.98l0.52,4.38l-11.54,1.36l-0.54,0.08c-0.77,0.09-1.52,0.01-2.25-0.23
		c-0.73-0.25-1.34-0.61-1.84-1.1c-0.49-0.49-0.88-1.14-1.17-1.95c-0.29-0.81-0.5-1.75-0.62-2.83c-0.28-2.46-0.12-4.18,0.51-5.19
		c0.63-1,1.56-1.58,2.79-1.72c0.15-0.02,0.36-0.04,0.62-0.05l0.02,4.6c-0.41,0.16-0.68,0.38-0.81,0.63c-0.2,0.37-0.26,0.82-0.2,1.34
		c0.08,0.68,0.32,1.16,0.72,1.45c0.4,0.29,1.05,0.38,1.95,0.28l1.85-0.21c-0.6-0.4-1.04-0.81-1.35-1.24
		c-0.47-0.68-0.75-1.43-0.85-2.27c-0.19-1.63,0.37-3.04,1.67-4.21c0.93-0.83,2.23-1.35,3.89-1.54c1.9-0.22,3.41,0.07,4.51,0.87
		c1.1,0.8,1.75,1.95,1.93,3.44c0.11,0.95,0.04,1.75-0.21,2.41c-0.25,0.66-0.71,1.3-1.4,1.92L274.11,141.98z M267.67,138.26
		c-0.88,0.11-1.51,0.37-1.9,0.8c-0.38,0.42-0.54,0.94-0.46,1.56c0.06,0.58,0.35,1.04,0.83,1.39c0.49,0.35,1.18,0.47,2.06,0.36
		c0.89-0.1,1.55-0.39,1.97-0.86c0.42-0.47,0.6-1,0.53-1.6c-0.07-0.6-0.35-1.05-0.82-1.36C269.42,138.24,268.68,138.14,267.67,138.26
		"/>
	<path class="st11" d="M268.58,149.09c1.88,0,3.42,0.64,4.64,1.9c1.22,1.27,1.83,2.98,1.83,5.13c0,2.46-0.72,4.32-2.15,5.58
		c-1.15,1.01-2.57,1.52-4.25,1.52c-1.89,0-3.45-0.63-4.66-1.88c-1.2-1.26-1.81-2.99-1.81-5.21c0-1.98,0.51-3.58,1.51-4.8
		C264.94,149.84,266.57,149.09,268.58,149.09 M268.59,153.82c-1.1,0-1.91,0.22-2.43,0.67c-0.53,0.44-0.78,1-0.78,1.67
		c0,0.68,0.25,1.24,0.77,1.67c0.52,0.44,1.35,0.65,2.49,0.66c1.07,0,1.86-0.22,2.38-0.66c0.52-0.44,0.78-0.98,0.78-1.63
		c0-0.69-0.27-1.26-0.8-1.7C270.48,154.04,269.67,153.82,268.59,153.82"/>
</g>
</svg>
